<svg width="30" height="30" viewBox="0 0 30 30" fill="none" xmlns="http://www.w3.org/2000/svg">
<path d="M22.4552 26.5417C22.7468 26.3523 23.1369 26.4351 23.3264 26.7267C23.5158 27.0184 23.433 27.4085 23.1413 27.5979C21.9486 28.3699 20.639 28.9779 19.2467 29.3883C17.8968 29.7863 16.4706 30 15 30C10.8584 30 7.10764 28.3204 4.39358 25.6064C1.67935 22.892 0 19.1413 0 15C0 10.8584 1.67958 7.10764 4.39358 4.39358C7.10803 1.67935 10.8587 0 15 0C19.1416 0 22.8924 1.67958 25.6064 4.39358C28.3206 7.10803 30 10.8587 30 15C30 16.5424 29.7647 18.0354 29.3286 19.4429C28.8777 20.8989 28.2116 22.2593 27.3702 23.4841C27.2583 23.6471 27.1319 23.7988 26.9942 23.9358C26.4627 24.4658 25.7798 24.7691 25.0756 24.8337C24.3723 24.8987 23.6456 24.7244 23.0273 24.3006C22.8658 24.1914 22.7141 24.0656 22.5733 23.9251L22.4912 24.0074C22.0176 24.5057 21.42 24.8205 20.7847 24.9366C20.151 25.0518 19.4822 24.9679 18.8628 24.6696C15.973 23.2751 13.2846 21.3344 10.9744 19.0244C8.66368 16.7141 6.72397 14.0266 5.32972 11.1371C5.03125 10.5183 4.94733 9.84915 5.06275 9.21634C5.1784 8.58105 5.49383 7.98326 5.99189 7.50924C6.47495 7.04975 6.98334 6.607 7.50495 6.21159C8.03207 5.81224 8.58516 5.45253 9.15459 5.16178C9.45747 5.00692 9.78943 4.97675 10.0923 5.05362C10.3952 5.13094 10.6727 5.31619 10.8681 5.58955L12.8598 8.38396L12.9444 8.52009C13.1006 8.80755 13.1387 9.12916 13.0752 9.42763L13.0673 9.46464C12.9935 9.77038 12.81 10.0521 12.5384 10.2459L12.3992 10.3325C12.2948 10.3895 12.1952 10.451 12.1038 10.516C11.8327 10.7085 11.6498 10.9169 11.5772 11.1261C11.5219 11.2847 11.5362 11.4634 11.6309 11.6535C11.6633 11.709 11.6959 11.772 11.7338 11.8229C12.6876 13.1674 13.6277 14.3031 14.6621 15.3378C15.6968 16.372 16.8325 17.3123 18.177 18.2661C18.2087 18.2903 18.2543 18.3176 18.3116 18.3489C18.516 18.4624 18.7074 18.4813 18.8764 18.4227C19.0835 18.3511 19.2912 18.1676 19.4839 17.896C19.5489 17.8046 19.6103 17.7051 19.6674 17.6007L19.7535 17.4619C19.9474 17.1896 20.2295 17.0068 20.5352 16.933C20.8408 16.8588 21.1734 16.8931 21.4696 17.0504L21.6159 17.1403L24.4103 19.132C24.6832 19.3263 24.8691 19.6056 24.9462 19.9105C25.0216 20.2149 24.9921 20.5457 24.8385 20.8455C24.5475 21.4152 24.1881 21.9678 23.7887 22.4949C23.6665 22.6564 23.5391 22.8172 23.4087 22.9758L23.4684 23.035C23.5561 23.1227 23.6466 23.1985 23.7378 23.2606C24.1079 23.5161 24.5416 23.6194 24.9623 23.5809C25.3809 23.5428 25.7882 23.3615 26.1036 23.0456C26.1844 22.9648 26.2597 22.874 26.3289 22.7738C27.1025 21.6473 27.7133 20.4021 28.1248 19.0734C28.522 17.7908 28.7365 16.4222 28.7365 15.0005C28.7365 11.207 27.1988 7.77244 24.7137 5.28676C22.2281 2.80165 18.7933 1.26389 14.9999 1.26389C11.2064 1.26389 7.77181 2.80165 5.28613 5.28676C2.80102 7.77233 1.26326 11.2072 1.26326 15.0005C1.26326 18.7941 2.80102 22.2286 5.28613 24.7143C7.77169 27.1994 11.2065 28.7372 14.9999 28.7372C16.355 28.7372 17.6619 28.5424 18.8915 28.1799C20.1666 27.8043 21.3652 27.2481 22.4548 26.5426L22.4552 26.5417Z" fill="white"/>
</svg>
