<svg width="202" height="65" viewBox="0 0 202 65" fill="none" xmlns="http://www.w3.org/2000/svg">
<path d="M32.0001 0.00022857H0.000228445V32H32.0001C23.5131 32 15.3739 35.3714 9.37277 41.3727C3.37142 47.3736 0 55.5132 0 64H31.9999C40.4869 64 48.6261 60.6286 54.6272 54.6273C60.6286 48.6264 64 40.4868 64 32C64 23.5132 60.6286 15.3738 54.6272 9.37273C48.6263 3.3714 40.4867 0 31.9999 0L32.0001 0.00022857ZM16.0002 27.4263C12.9627 27.4263 10.0498 26.2196 7.90203 24.0718C5.75427 21.9241 4.54753 19.0107 4.54753 15.9737C4.54753 12.9362 5.75427 10.0234 7.90203 7.8756C10.0498 5.72785 12.9627 4.52111 16.0002 4.52111C19.0376 4.52111 21.9506 5.72785 24.0983 7.8756C26.2461 10.0234 27.4528 12.9362 27.4528 15.9737C27.4528 19.0107 26.2461 21.9241 24.0983 24.0718C21.9506 26.2196 19.0376 27.4263 16.0002 27.4263Z" fill="white"/>
<path d="M81.9883 21.2344C80.4414 21.2344 79.0508 20.8828 77.8164 20.1797C76.582 19.4766 75.6055 18.457 74.8867 17.1211C74.168 15.7852 73.8086 14.1719 73.8086 12.2812C73.8086 10.375 74.168 8.75391 74.8867 7.41797C75.6055 6.07422 76.582 5.05469 77.8164 4.35938C79.0508 3.65625 80.4414 3.30469 81.9883 3.30469C83.5352 3.30469 84.9258 3.65625 86.1602 4.35938C87.3945 5.05469 88.3672 6.07422 89.0781 7.41797C89.7969 8.75391 90.1562 10.375 90.1562 12.2812C90.1562 14.1797 89.7969 15.7969 89.0781 17.1328C88.3672 18.4688 87.3945 19.4883 86.1602 20.1914C84.9258 20.8867 83.5352 21.2344 81.9883 21.2344ZM81.9883 17.9766C82.8867 17.9766 83.668 17.7578 84.332 17.3203C84.9961 16.8828 85.5078 16.2422 85.8672 15.3984C86.2344 14.5469 86.418 13.5078 86.418 12.2812C86.418 11.0469 86.2344 10.0039 85.8672 9.15234C85.5078 8.30078 84.9961 7.65625 84.332 7.21875C83.668 6.78125 82.8867 6.5625 81.9883 6.5625C81.0977 6.5625 80.3203 6.78125 79.6562 7.21875C78.9922 7.65625 78.4727 8.30078 78.0977 9.15234C77.7305 10.0039 77.5469 11.0469 77.5469 12.2812C77.5469 13.5078 77.7305 14.5469 78.0977 15.3984C78.4727 16.2422 78.9922 16.8828 79.6562 17.3203C80.3203 17.7578 81.0977 17.9766 81.9883 17.9766Z" fill="white"/>
<path d="M94.9234 10.8516L95.9547 3.53906H99.5641L97.3727 10.8516H94.9234Z" fill="white"/>
<path d="M112.452 21.2344C110.905 21.2344 109.519 20.8828 108.292 20.1797C107.066 19.4766 106.097 18.457 105.386 17.1211C104.675 15.7852 104.32 14.1719 104.32 12.2812C104.32 10.375 104.675 8.75391 105.386 7.41797C106.105 6.07422 107.077 5.05469 108.304 4.35938C109.538 3.65625 110.921 3.30469 112.452 3.30469C113.468 3.30469 114.409 3.44922 115.277 3.73828C116.144 4.01953 116.909 4.43359 117.573 4.98047C118.245 5.51953 118.792 6.18359 119.214 6.97266C119.636 7.75391 119.905 8.64844 120.023 9.65625H116.296C116.226 9.17969 116.085 8.75 115.874 8.36719C115.671 7.98438 115.402 7.66016 115.066 7.39453C114.737 7.12891 114.359 6.92578 113.929 6.78516C113.507 6.63672 113.042 6.5625 112.534 6.5625C111.644 6.5625 110.859 6.78906 110.179 7.24219C109.507 7.6875 108.984 8.33594 108.609 9.1875C108.241 10.0312 108.058 11.0625 108.058 12.2812C108.058 13.5234 108.245 14.5703 108.62 15.4219C108.995 16.2656 109.519 16.9023 110.191 17.332C110.862 17.7617 111.64 17.9766 112.523 17.9766C113.015 17.9766 113.472 17.9102 113.894 17.7773C114.316 17.6445 114.691 17.4531 115.019 17.2031C115.347 16.9531 115.62 16.6484 115.839 16.2891C116.066 15.9219 116.218 15.5039 116.296 15.0352H120.023C119.929 15.8398 119.691 16.6133 119.308 17.3555C118.933 18.0977 118.421 18.7617 117.773 19.3477C117.124 19.9258 116.355 20.3867 115.464 20.7305C114.573 21.0664 113.57 21.2344 112.452 21.2344Z" fill="white"/>
<path d="M130.145 21.2578C128.825 21.2578 127.68 20.9766 126.712 20.4141C125.751 19.8438 125.009 19.0547 124.485 18.0469C123.97 17.0312 123.712 15.8516 123.712 14.5078C123.712 13.1484 123.97 11.9648 124.485 10.957C125.009 9.94141 125.751 9.15234 126.712 8.58984C127.68 8.01953 128.825 7.73438 130.145 7.73438C131.473 7.73438 132.618 8.01953 133.579 8.58984C134.548 9.15234 135.29 9.94141 135.805 10.957C136.329 11.9648 136.591 13.1484 136.591 14.5078C136.591 15.8516 136.329 17.0312 135.805 18.0469C135.29 19.0547 134.548 19.8438 133.579 20.4141C132.618 20.9766 131.473 21.2578 130.145 21.2578ZM130.169 18.4219C130.77 18.4219 131.274 18.2539 131.68 17.918C132.087 17.5742 132.391 17.1055 132.595 16.5117C132.805 15.918 132.911 15.2422 132.911 14.4844C132.911 13.7188 132.805 13.043 132.595 12.457C132.391 11.8711 132.087 11.4102 131.68 11.0742C131.274 10.7383 130.77 10.5703 130.169 10.5703C129.559 10.5703 129.048 10.7383 128.634 11.0742C128.227 11.4102 127.919 11.8711 127.708 12.457C127.505 13.043 127.403 13.7188 127.403 14.4844C127.403 15.2422 127.505 15.918 127.708 16.5117C127.919 17.1055 128.227 17.5742 128.634 17.918C129.048 18.2539 129.559 18.4219 130.169 18.4219Z" fill="white"/>
<path d="M144.217 13.4297V21H140.596V7.89844H144.159V10.2305H144.287C144.584 9.45703 145.057 8.84766 145.705 8.40234C146.354 7.95703 147.166 7.73438 148.143 7.73438C149.049 7.73438 149.838 7.93359 150.51 8.33203C151.19 8.73047 151.717 9.29688 152.092 10.0312C152.467 10.7656 152.655 11.6445 152.655 12.668V21H149.034V13.3125C149.034 12.5156 148.827 11.8906 148.412 11.4375C147.998 10.9766 147.428 10.7461 146.702 10.7461C146.217 10.7461 145.787 10.8555 145.412 11.0742C145.037 11.2852 144.745 11.5898 144.534 11.9883C144.323 12.3867 144.217 12.8672 144.217 13.4297Z" fill="white"/>
<path d="M160.82 13.4297V21H157.199V7.89844H160.762V10.2305H160.891C161.188 9.45703 161.66 8.84766 162.309 8.40234C162.957 7.95703 163.77 7.73438 164.746 7.73438C165.652 7.73438 166.441 7.93359 167.113 8.33203C167.793 8.73047 168.32 9.29688 168.695 10.0312C169.07 10.7656 169.258 11.6445 169.258 12.668V21H165.637V13.3125C165.637 12.5156 165.43 11.8906 165.016 11.4375C164.602 10.9766 164.031 10.7461 163.305 10.7461C162.82 10.7461 162.391 10.8555 162.016 11.0742C161.641 11.2852 161.348 11.5898 161.137 11.9883C160.926 12.3867 160.82 12.8672 160.82 13.4297Z" fill="white"/>
<path d="M179.767 21.2578C178.423 21.2578 177.263 20.9844 176.287 20.4375C175.31 19.8906 174.56 19.1133 174.037 18.1055C173.521 17.0898 173.263 15.8906 173.263 14.5078C173.263 13.1641 173.521 11.9844 174.037 10.9688C174.56 9.95312 175.295 9.16016 176.24 8.58984C177.193 8.01953 178.31 7.73438 179.591 7.73438C180.459 7.73438 181.267 7.875 182.017 8.15625C182.767 8.42969 183.423 8.84375 183.986 9.39844C184.548 9.94531 184.986 10.6367 185.298 11.4727C185.611 12.3008 185.767 13.2734 185.767 14.3906V15.375H174.705V13.1367H184.009L182.322 13.7227C182.322 13.0586 182.22 12.4805 182.017 11.9883C181.814 11.4961 181.509 11.1172 181.103 10.8516C180.705 10.5781 180.209 10.4414 179.615 10.4414C179.021 10.4414 178.517 10.5781 178.103 10.8516C177.697 11.125 177.384 11.4961 177.166 11.9648C176.947 12.4336 176.838 12.9727 176.838 13.582V15.1641C176.838 15.875 176.963 16.4844 177.213 16.9922C177.463 17.4922 177.81 17.8789 178.255 18.1523C178.709 18.418 179.228 18.5508 179.814 18.5508C180.22 18.5508 180.588 18.4922 180.916 18.375C181.244 18.2578 181.525 18.0859 181.759 17.8594C182.002 17.6328 182.181 17.3594 182.298 17.0391L185.65 17.2617C185.486 18.0664 185.142 18.7695 184.619 19.3711C184.103 19.9648 183.435 20.4297 182.615 20.7656C181.795 21.0938 180.845 21.2578 179.767 21.2578Z" fill="white"/>
<path d="M193.347 3.53906V21H189.726V3.53906H193.347Z" fill="white"/>
<path d="M201.512 3.53906V21H197.891V3.53906H201.512Z" fill="white"/>
<path d="M74.9297 41H73.0625L77.25 29.3594H79.2812L83.4609 41H81.6016L78.3047 31.4766H78.2109L74.9297 41ZM75.2422 36.4453H81.2812V37.9141H75.2422V36.4453Z" fill="white"/>
<path d="M87.8516 41.1797C87.013 41.1797 86.2891 40.987 85.6797 40.6016C85.0703 40.2161 84.6016 39.6849 84.2734 39.0078C83.9453 38.3307 83.7812 37.5547 83.7812 36.6797C83.7812 35.7891 83.9479 35.0052 84.2812 34.3281C84.6198 33.6458 85.0911 33.1146 85.6953 32.7344C86.3047 32.349 87.0182 32.1562 87.8359 32.1562C88.5026 32.1562 89.0938 32.2786 89.6094 32.5234C90.1302 32.763 90.5495 33.1042 90.8672 33.5469C91.1901 33.9896 91.3802 34.5052 91.4375 35.0938H89.7812C89.724 34.8177 89.612 34.5651 89.4453 34.3359C89.2839 34.1068 89.0703 33.9245 88.8047 33.7891C88.5391 33.6536 88.224 33.5859 87.8594 33.5859C87.3854 33.5859 86.9714 33.7109 86.6172 33.9609C86.2682 34.2057 85.9948 34.5573 85.7969 35.0156C85.599 35.474 85.5 36.0156 85.5 36.6406C85.5 37.2708 85.5964 37.8203 85.7891 38.2891C85.9818 38.7578 86.2552 39.1198 86.6094 39.375C86.9688 39.625 87.3854 39.75 87.8594 39.75C88.349 39.75 88.7656 39.6146 89.1094 39.3438C89.4583 39.0729 89.6823 38.7031 89.7812 38.2344H91.4375C91.3802 38.8021 91.1979 39.3073 90.8906 39.75C90.5833 40.1927 90.1719 40.5417 89.6562 40.7969C89.1406 41.0521 88.5391 41.1797 87.8516 41.1797Z" fill="white"/>
<path d="M96.3047 41.1797C95.4661 41.1797 94.7422 40.987 94.1328 40.6016C93.5234 40.2161 93.0547 39.6849 92.7266 39.0078C92.3984 38.3307 92.2344 37.5547 92.2344 36.6797C92.2344 35.7891 92.401 35.0052 92.7344 34.3281C93.0729 33.6458 93.5443 33.1146 94.1484 32.7344C94.7578 32.349 95.4714 32.1562 96.2891 32.1562C96.9557 32.1562 97.5469 32.2786 98.0625 32.5234C98.5833 32.763 99.0026 33.1042 99.3203 33.5469C99.6432 33.9896 99.8333 34.5052 99.8906 35.0938H98.2344C98.1771 34.8177 98.0651 34.5651 97.8984 34.3359C97.737 34.1068 97.5234 33.9245 97.2578 33.7891C96.9922 33.6536 96.6771 33.5859 96.3125 33.5859C95.8385 33.5859 95.4245 33.7109 95.0703 33.9609C94.7214 34.2057 94.4479 34.5573 94.25 35.0156C94.0521 35.474 93.9531 36.0156 93.9531 36.6406C93.9531 37.2708 94.0495 37.8203 94.2422 38.2891C94.4349 38.7578 94.7083 39.1198 95.0625 39.375C95.4219 39.625 95.8385 39.75 96.3125 39.75C96.8021 39.75 97.2188 39.6146 97.5625 39.3438C97.9115 39.0729 98.1354 38.7031 98.2344 38.2344H99.8906C99.8333 38.8021 99.651 39.3073 99.3438 39.75C99.0365 40.1927 98.625 40.5417 98.1094 40.7969C97.5938 41.0521 96.9922 41.1797 96.3047 41.1797Z" fill="white"/>
<path d="M104.758 41.1797C103.94 41.1797 103.224 40.9922 102.609 40.6172C102 40.2422 101.526 39.7161 101.188 39.0391C100.854 38.362 100.688 37.5755 100.688 36.6797C100.688 35.7734 100.854 34.9818 101.188 34.3047C101.526 33.6224 102 33.0938 102.609 32.7188C103.224 32.3438 103.94 32.1562 104.758 32.1562C105.581 32.1562 106.297 32.3438 106.906 32.7188C107.516 33.0938 107.99 33.6224 108.328 34.3047C108.667 34.9818 108.836 35.7734 108.836 36.6797C108.836 37.5755 108.667 38.362 108.328 39.0391C107.99 39.7161 107.516 40.2422 106.906 40.6172C106.297 40.9922 105.581 41.1797 104.758 41.1797ZM104.758 39.75C105.294 39.75 105.737 39.6094 106.086 39.3281C106.435 39.0469 106.693 38.6745 106.859 38.2109C107.031 37.7422 107.117 37.2318 107.117 36.6797C107.117 36.1172 107.031 35.6016 106.859 35.1328C106.693 34.6641 106.435 34.2891 106.086 34.0078C105.737 33.7266 105.294 33.5859 104.758 33.5859C104.227 33.5859 103.786 33.7266 103.438 34.0078C103.094 34.2891 102.836 34.6641 102.664 35.1328C102.492 35.6016 102.406 36.1172 102.406 36.6797C102.406 37.2318 102.492 37.7422 102.664 38.2109C102.836 38.6745 103.094 39.0469 103.438 39.3281C103.786 39.6094 104.227 39.75 104.758 39.75Z" fill="white"/>
<path d="M115.594 37.3906V32.2656H117.281V41H115.625V39.4844H115.531C115.323 39.9479 115 40.3359 114.562 40.6484C114.125 40.9609 113.578 41.1146 112.922 41.1094C112.359 41.1094 111.862 40.987 111.43 40.7422C111.003 40.4974 110.667 40.1302 110.422 39.6406C110.182 39.151 110.062 38.5443 110.062 37.8203V32.2656H111.75V37.625C111.75 38.2135 111.917 38.6849 112.25 39.0391C112.583 39.3932 113.013 39.5677 113.539 39.5625C113.857 39.5625 114.172 39.4844 114.484 39.3281C114.802 39.1719 115.065 38.9323 115.273 38.6094C115.487 38.2865 115.594 37.8802 115.594 37.3906Z" fill="white"/>
<path d="M120.594 35.8203V41H118.906V32.2656H120.547V33.7031H120.664C120.862 33.2292 121.172 32.8542 121.594 32.5781C122.016 32.2969 122.557 32.1562 123.219 32.1562C123.812 32.1562 124.331 32.2812 124.773 32.5312C125.221 32.776 125.568 33.1432 125.812 33.6328C126.062 34.1224 126.188 34.7292 126.188 35.4531V41H124.5V35.6562C124.5 35.026 124.333 34.5312 124 34.1719C123.667 33.8073 123.214 33.625 122.641 33.625C122.25 33.625 121.898 33.7135 121.586 33.8906C121.279 34.0625 121.036 34.3099 120.859 34.6328C120.682 34.9557 120.594 35.3516 120.594 35.8203Z" fill="white"/>
<path d="M131.875 32.2656V33.6328H127.109V32.2656H131.875ZM128.383 30.1875H130.078V38.4375C130.078 38.8385 130.161 39.1328 130.328 39.3203C130.495 39.5026 130.763 39.5938 131.133 39.5938C131.221 39.5938 131.315 39.5885 131.414 39.5781C131.518 39.5677 131.622 39.5521 131.727 39.5312L132.047 40.9375C131.875 40.9948 131.688 41.0391 131.484 41.0703C131.281 41.1016 131.078 41.1172 130.875 41.1172C130.12 41.1172 129.516 40.9062 129.062 40.4844C128.609 40.0573 128.383 39.4896 128.383 38.7812V30.1875Z" fill="white"/>
<path d="M135.625 41.1875C135.073 41.1875 134.573 41.0859 134.125 40.8828C133.677 40.6745 133.323 40.3724 133.062 39.9766C132.802 39.5807 132.672 39.099 132.672 38.5312C132.672 38.0365 132.766 37.6328 132.953 37.3203C133.146 37.0026 133.404 36.75 133.727 36.5625C134.049 36.375 134.409 36.2344 134.805 36.1406C135.201 36.0469 135.607 35.974 136.023 35.9219C136.549 35.8646 136.974 35.8151 137.297 35.7734C137.62 35.7318 137.854 35.6667 138 35.5781C138.151 35.4844 138.227 35.3359 138.227 35.1328V35.0938C138.227 34.599 138.086 34.2161 137.805 33.9453C137.529 33.6745 137.117 33.5391 136.57 33.5391C136.003 33.5391 135.552 33.6641 135.219 33.9141C134.891 34.1589 134.664 34.4375 134.539 34.75L132.938 34.3828C133.13 33.8516 133.409 33.4245 133.773 33.1016C134.143 32.7734 134.565 32.5339 135.039 32.3828C135.518 32.2318 136.018 32.1562 136.539 32.1562C136.888 32.1562 137.258 32.1979 137.648 32.2812C138.039 32.3594 138.406 32.5078 138.75 32.7266C139.099 32.9401 139.383 33.2474 139.602 33.6484C139.82 34.0495 139.93 34.5677 139.93 35.2031V41H138.266V39.8047H138.203C138.099 40.0182 137.935 40.2318 137.711 40.4453C137.492 40.6589 137.211 40.8359 136.867 40.9766C136.523 41.1172 136.109 41.1875 135.625 41.1875ZM135.992 39.8281C136.466 39.8281 136.87 39.737 137.203 39.5547C137.536 39.3672 137.792 39.1224 137.969 38.8203C138.146 38.5182 138.234 38.1979 138.234 37.8594V36.7266C138.172 36.7839 138.055 36.8385 137.883 36.8906C137.711 36.9427 137.516 36.987 137.297 37.0234C137.078 37.0599 136.865 37.0938 136.656 37.125C136.448 37.151 136.273 37.1719 136.133 37.1875C135.805 37.2344 135.505 37.3073 135.234 37.4062C134.964 37.5 134.745 37.6406 134.578 37.8281C134.417 38.0104 134.336 38.2526 134.336 38.5547C134.336 38.9766 134.492 39.2943 134.805 39.5078C135.117 39.7214 135.513 39.8281 135.992 39.8281Z" fill="white"/>
<path d="M143.25 35.8203V41H141.562V32.2656H143.203V33.7031H143.32C143.518 33.2292 143.828 32.8542 144.25 32.5781C144.672 32.2969 145.214 32.1562 145.875 32.1562C146.469 32.1562 146.987 32.2812 147.43 32.5312C147.878 32.776 148.224 33.1432 148.469 33.6328C148.719 34.1224 148.844 34.7292 148.844 35.4531V41H147.156V35.6562C147.156 35.026 146.99 34.5312 146.656 34.1719C146.323 33.8073 145.87 33.625 145.297 33.625C144.906 33.625 144.555 33.7135 144.242 33.8906C143.935 34.0625 143.693 34.3099 143.516 34.6328C143.339 34.9557 143.25 35.3516 143.25 35.8203Z" fill="white"/>
<path d="M154.531 32.2656V33.6328H149.766V32.2656H154.531ZM151.039 30.1875H152.734V38.4375C152.734 38.8385 152.818 39.1328 152.984 39.3203C153.151 39.5026 153.419 39.5938 153.789 39.5938C153.878 39.5938 153.971 39.5885 154.07 39.5781C154.174 39.5677 154.279 39.5521 154.383 39.5312L154.703 40.9375C154.531 40.9948 154.344 41.0391 154.141 41.0703C153.938 41.1016 153.734 41.1172 153.531 41.1172C152.776 41.1172 152.172 40.9062 151.719 40.4844C151.266 40.0573 151.039 39.4896 151.039 38.7812V30.1875Z" fill="white"/>
<path d="M162.141 34.4062L160.602 34.6719C160.503 34.3802 160.318 34.112 160.047 33.8672C159.781 33.6224 159.383 33.5 158.852 33.5C158.372 33.5 157.971 33.6094 157.648 33.8281C157.331 34.0417 157.172 34.3151 157.172 34.6484C157.172 34.9401 157.279 35.1771 157.492 35.3594C157.711 35.5417 158.057 35.6875 158.531 35.7969L159.93 36.1094C160.727 36.2917 161.323 36.5781 161.719 36.9688C162.115 37.3594 162.312 37.8594 162.312 38.4688C162.312 38.9948 162.161 39.4635 161.859 39.875C161.557 40.2812 161.138 40.6016 160.602 40.8359C160.065 41.0651 159.445 41.1797 158.742 41.1797C157.763 41.1797 156.966 40.9688 156.352 40.5469C155.737 40.125 155.359 39.5312 155.219 38.7656L156.852 38.5156C156.956 38.9427 157.167 39.2656 157.484 39.4844C157.807 39.7031 158.224 39.8125 158.734 39.8125C159.286 39.8125 159.729 39.6953 160.062 39.4609C160.401 39.2266 160.57 38.9427 160.57 38.6094C160.57 38.0573 160.159 37.6849 159.336 37.4922L157.859 37.1641C157.042 36.9766 156.438 36.6823 156.047 36.2812C155.661 35.875 155.469 35.3646 155.469 34.75C155.469 34.2344 155.612 33.7812 155.898 33.3906C156.19 33 156.589 32.6979 157.094 32.4844C157.604 32.2656 158.185 32.1562 158.836 32.1562C159.784 32.1562 160.526 32.362 161.062 32.7734C161.604 33.1849 161.964 33.7292 162.141 34.4062Z" fill="white"/>
<path d="M170.75 41V29.3594H177.977V30.8672H172.508V34.6406H177.453V36.1406H172.508V41H170.75Z" fill="white"/>
<path d="M179.328 41V32.2656H181.016V41H179.328ZM180.18 30.9219C179.883 30.9219 179.63 30.8229 179.422 30.625C179.214 30.4271 179.109 30.1901 179.109 29.9141C179.109 29.6328 179.214 29.3932 179.422 29.1953C179.63 28.9974 179.883 28.8984 180.18 28.8984C180.471 28.8984 180.721 28.9974 180.93 29.1953C181.143 29.3932 181.25 29.6328 181.25 29.9141C181.25 30.1901 181.143 30.4271 180.93 30.625C180.721 30.8229 180.471 30.9219 180.18 30.9219Z" fill="white"/>
<path d="M182.641 41V32.2656H184.273V33.6641H184.367C184.529 33.1953 184.81 32.8255 185.211 32.5547C185.617 32.2786 186.076 32.1406 186.586 32.1406C186.69 32.1406 186.812 32.1458 186.953 32.1562C187.099 32.1615 187.216 32.1693 187.305 32.1797V33.8047C187.237 33.7839 187.115 33.763 186.938 33.7422C186.766 33.7214 186.591 33.7109 186.414 33.7109C186.013 33.7109 185.654 33.7969 185.336 33.9688C185.023 34.1354 184.776 34.3672 184.594 34.6641C184.417 34.9557 184.328 35.2943 184.328 35.6797V41H182.641Z" fill="white"/>
<path d="M188.125 41V32.2656H189.742V33.7031H189.859C190.042 33.2188 190.339 32.8411 190.75 32.5703C191.167 32.2943 191.661 32.1562 192.234 32.1562C192.818 32.1562 193.305 32.2943 193.695 32.5703C194.091 32.8411 194.385 33.2188 194.578 33.7031H194.672C194.88 33.2292 195.211 32.8542 195.664 32.5781C196.117 32.2969 196.656 32.1562 197.281 32.1562C198.073 32.1562 198.721 32.4062 199.227 32.9062C199.732 33.401 199.984 34.1484 199.984 35.1484V41H198.281V35.3047C198.281 34.7109 198.12 34.2839 197.797 34.0234C197.474 33.7578 197.089 33.625 196.641 33.625C196.089 33.625 195.659 33.7969 195.352 34.1406C195.049 34.4792 194.898 34.9089 194.898 35.4297V41H193.195V35.1953C193.195 34.7214 193.049 34.3411 192.758 34.0547C192.466 33.7682 192.083 33.625 191.609 33.625C191.286 33.625 190.987 33.7109 190.711 33.8828C190.44 34.0495 190.221 34.2839 190.055 34.5859C189.893 34.8828 189.812 35.2266 189.812 35.6172V41H188.125Z" fill="white"/>
<path d="M78.7656 61.1562C77.7344 61.1562 76.8281 60.9141 76.0469 60.4297C75.2708 59.9453 74.6641 59.2578 74.2266 58.3672C73.7943 57.4714 73.5781 56.4115 73.5781 55.1875C73.5781 53.9583 73.7943 52.8958 74.2266 52C74.6641 51.1042 75.2656 50.4141 76.0312 49.9297C76.7969 49.4453 77.6771 49.2031 78.6719 49.2031C79.2865 49.2031 79.8594 49.2943 80.3906 49.4766C80.9219 49.6589 81.3958 49.9193 81.8125 50.2578C82.2292 50.5964 82.5755 50.9974 82.8516 51.4609C83.1328 51.9245 83.3281 52.4375 83.4375 53H81.9844C81.8594 52.6146 81.6953 52.2708 81.4922 51.9688C81.2943 51.6615 81.0547 51.401 80.7734 51.1875C80.4922 50.9688 80.1771 50.8021 79.8281 50.6875C79.4792 50.5729 79.0938 50.5156 78.6719 50.5156C77.9844 50.5156 77.3568 50.6953 76.7891 51.0547C76.2266 51.4089 75.776 51.9349 75.4375 52.6328C75.1042 53.3255 74.9375 54.1771 74.9375 55.1875C74.9375 56.1927 75.1068 57.0417 75.4453 57.7344C75.7839 58.4271 76.2422 58.9531 76.8203 59.3125C77.3984 59.6667 78.0469 59.8438 78.7656 59.8438C79.4323 59.8438 80.0182 59.7005 80.5234 59.4141C81.0286 59.1276 81.4245 58.724 81.7109 58.2031C81.9974 57.6771 82.1406 57.0573 82.1406 56.3438L82.5781 56.4375H79.0781V55.1875H83.5156V56.4375C83.5156 57.3958 83.3125 58.2292 82.9062 58.9375C82.5 59.6406 81.9375 60.1875 81.2188 60.5781C80.5052 60.9635 79.6875 61.1562 78.7656 61.1562Z" fill="white"/>
<path d="M87.5625 61.2031C87.0104 61.2031 86.5078 61.099 86.0547 60.8906C85.6016 60.6771 85.2422 60.3698 84.9766 59.9688C84.7109 59.5677 84.5781 59.0833 84.5781 58.5156C84.5781 58.0156 84.6771 57.612 84.875 57.3047C85.0729 56.9922 85.3359 56.7474 85.6641 56.5703C85.9974 56.388 86.362 56.2526 86.7578 56.1641C87.1589 56.0755 87.5625 56.0052 87.9688 55.9531C88.5 55.8854 88.9297 55.8333 89.2578 55.7969C89.5911 55.7604 89.8333 55.6979 89.9844 55.6094C90.1406 55.5208 90.2188 55.3698 90.2188 55.1562V55.1094C90.2188 54.5521 90.0651 54.1198 89.7578 53.8125C89.4557 53.5 88.9948 53.3438 88.375 53.3438C87.7396 53.3438 87.2396 53.4844 86.875 53.7656C86.5104 54.0417 86.2552 54.3385 86.1094 54.6562L84.8281 54.2031C85.0573 53.6719 85.362 53.2578 85.7422 52.9609C86.1276 52.6641 86.5443 52.4557 86.9922 52.3359C87.4453 52.2161 87.8906 52.1562 88.3281 52.1562C88.6094 52.1562 88.9323 52.1901 89.2969 52.2578C89.6615 52.3203 90.0156 52.4557 90.3594 52.6641C90.7083 52.8672 90.9948 53.1771 91.2188 53.5938C91.4479 54.0052 91.5625 54.5573 91.5625 55.25V61H90.2188V59.8125H90.1562C90.0677 60 89.9167 60.2031 89.7031 60.4219C89.4896 60.6354 89.2057 60.8203 88.8516 60.9766C88.5026 61.1276 88.0729 61.2031 87.5625 61.2031ZM87.7656 60C88.2969 60 88.7448 59.8958 89.1094 59.6875C89.474 59.4792 89.75 59.2109 89.9375 58.8828C90.125 58.5495 90.2188 58.2031 90.2188 57.8438V56.6094C90.1615 56.6771 90.0365 56.7396 89.8438 56.7969C89.6562 56.849 89.4375 56.8958 89.1875 56.9375C88.9427 56.9792 88.7031 57.0156 88.4688 57.0469C88.2344 57.0729 88.0469 57.0938 87.9062 57.1094C87.5573 57.1562 87.2318 57.2318 86.9297 57.3359C86.6276 57.4349 86.3828 57.5833 86.1953 57.7812C86.013 57.9792 85.9219 58.25 85.9219 58.5938C85.9219 59.0573 86.0938 59.4089 86.4375 59.6484C86.7865 59.8828 87.2292 60 87.7656 60Z" fill="white"/>
<path d="M94.6094 49.3594V61H93.2812V49.3594H94.6094Z" fill="white"/>
<path d="M98.2969 61L95.6406 52.2656H97.0469L98.9375 58.9531H99.0312L100.891 52.2656H102.328L104.156 58.9375H104.25L106.141 52.2656H107.547L104.891 61H103.578L101.656 54.2969H101.531L99.6094 61H98.2969Z" fill="white"/>
<path d="M111.141 61.2031C110.589 61.2031 110.086 61.099 109.633 60.8906C109.18 60.6771 108.82 60.3698 108.555 59.9688C108.289 59.5677 108.156 59.0833 108.156 58.5156C108.156 58.0156 108.255 57.612 108.453 57.3047C108.651 56.9922 108.914 56.7474 109.242 56.5703C109.576 56.388 109.94 56.2526 110.336 56.1641C110.737 56.0755 111.141 56.0052 111.547 55.9531C112.078 55.8854 112.508 55.8333 112.836 55.7969C113.169 55.7604 113.411 55.6979 113.562 55.6094C113.719 55.5208 113.797 55.3698 113.797 55.1562V55.1094C113.797 54.5521 113.643 54.1198 113.336 53.8125C113.034 53.5 112.573 53.3438 111.953 53.3438C111.318 53.3438 110.818 53.4844 110.453 53.7656C110.089 54.0417 109.833 54.3385 109.688 54.6562L108.406 54.2031C108.635 53.6719 108.94 53.2578 109.32 52.9609C109.706 52.6641 110.122 52.4557 110.57 52.3359C111.023 52.2161 111.469 52.1562 111.906 52.1562C112.188 52.1562 112.51 52.1901 112.875 52.2578C113.24 52.3203 113.594 52.4557 113.938 52.6641C114.286 52.8672 114.573 53.1771 114.797 53.5938C115.026 54.0052 115.141 54.5573 115.141 55.25V61H113.797V59.8125H113.734C113.646 60 113.495 60.2031 113.281 60.4219C113.068 60.6354 112.784 60.8203 112.43 60.9766C112.081 61.1276 111.651 61.2031 111.141 61.2031ZM111.344 60C111.875 60 112.323 59.8958 112.688 59.6875C113.052 59.4792 113.328 59.2109 113.516 58.8828C113.703 58.5495 113.797 58.2031 113.797 57.8438V56.6094C113.74 56.6771 113.615 56.7396 113.422 56.7969C113.234 56.849 113.016 56.8958 112.766 56.9375C112.521 56.9792 112.281 57.0156 112.047 57.0469C111.812 57.0729 111.625 57.0938 111.484 57.1094C111.135 57.1562 110.81 57.2318 110.508 57.3359C110.206 57.4349 109.961 57.5833 109.773 57.7812C109.591 57.9792 109.5 58.25 109.5 58.5938C109.5 59.0573 109.672 59.4089 110.016 59.6484C110.365 59.8828 110.807 60 111.344 60Z" fill="white"/>
<path d="M117.406 64.2656C117.177 64.2708 116.974 64.2552 116.797 64.2188C116.62 64.1823 116.495 64.1458 116.422 64.1094L116.766 62.9375L116.898 62.9688C117.346 63.0729 117.721 63.0495 118.023 62.8984C118.331 62.7526 118.599 62.3646 118.828 61.7344L119.078 61.0469L115.859 52.2656H117.312L119.719 59.2344H119.812L122.219 52.2656H123.672L119.969 62.2656C119.802 62.7188 119.596 63.0938 119.352 63.3906C119.107 63.6875 118.823 63.9062 118.5 64.0469C118.177 64.1927 117.812 64.2656 117.406 64.2656Z" fill="white"/>
</svg>
