<svg width="36" height="36" viewBox="0 0 36 36" fill="none" xmlns="http://www.w3.org/2000/svg">
<path d="M18.0001 0.000128571H0.0001285V18H18.0001C13.2261 18 8.64781 19.8964 5.27218 23.2722C1.89642 26.6476 0 31.2262 0 36H17.9999C22.7739 36 27.3522 34.1036 30.7278 30.7278C34.1036 27.3523 36 22.7738 36 18C36 13.2262 34.1036 8.64778 30.7278 5.27216C27.3523 1.89641 22.7738 0 17.9999 0L18.0001 0.000128571ZM9.0001 15.4273C7.29152 15.4273 5.65301 14.7485 4.44489 13.5404C3.23677 12.3323 2.55798 10.6935 2.55798 8.98521C2.55798 7.27664 3.23677 5.63814 4.44489 4.43003C5.65301 3.22191 7.29152 2.54312 9.0001 2.54312C10.7087 2.54312 12.3472 3.22191 13.5553 4.43003C14.7634 5.63814 15.4422 7.27664 15.4422 8.98521C15.4422 10.6935 14.7634 12.3323 13.5553 13.5404C12.3472 14.7485 10.7087 15.4273 9.0001 15.4273Z" fill="white"/>
</svg>
