<svg width="226" height="83" viewBox="0 0 226 83" fill="none" xmlns="http://www.w3.org/2000/svg">
<path d="M41.5002 0.000296426H0.000296265V41.5H41.5002C30.4935 41.5 19.938 45.8723 12.1553 53.6553C4.3723 61.4376 0 71.9937 0 83H41.4999C52.5065 83 63.062 78.6277 70.8447 70.8447C78.6277 63.0624 83 52.5063 83 41.5C83 30.4937 78.6277 19.9379 70.8447 12.1553C63.0623 4.37229 52.5062 0 41.4999 0L41.5002 0.000296426ZM20.7502 35.5685C16.811 35.5685 13.0333 34.0035 10.2479 31.2182C7.46256 28.4328 5.89757 24.6545 5.89757 20.7159C5.89757 16.7767 7.46256 12.999 10.2479 10.2137C13.0333 7.4283 16.811 5.86331 20.7502 5.86331C24.6894 5.86331 28.4671 7.4283 31.2525 10.2137C34.0379 12.999 35.6029 16.7767 35.6029 20.7159C35.6029 24.6545 34.0379 28.4328 31.2525 31.2182C28.4671 34.0035 24.6894 35.5685 20.7502 35.5685Z" fill="white"/>
<path d="M105.988 30.2344C104.441 30.2344 103.051 29.8828 101.816 29.1797C100.582 28.4766 99.6055 27.457 98.8867 26.1211C98.168 24.7852 97.8086 23.1719 97.8086 21.2812C97.8086 19.375 98.168 17.7539 98.8867 16.418C99.6055 15.0742 100.582 14.0547 101.816 13.3594C103.051 12.6562 104.441 12.3047 105.988 12.3047C107.535 12.3047 108.926 12.6562 110.16 13.3594C111.395 14.0547 112.367 15.0742 113.078 16.418C113.797 17.7539 114.156 19.375 114.156 21.2812C114.156 23.1797 113.797 24.7969 113.078 26.1328C112.367 27.4688 111.395 28.4883 110.16 29.1914C108.926 29.8867 107.535 30.2344 105.988 30.2344ZM105.988 26.9766C106.887 26.9766 107.668 26.7578 108.332 26.3203C108.996 25.8828 109.508 25.2422 109.867 24.3984C110.234 23.5469 110.418 22.5078 110.418 21.2812C110.418 20.0469 110.234 19.0039 109.867 18.1523C109.508 17.3008 108.996 16.6562 108.332 16.2188C107.668 15.7812 106.887 15.5625 105.988 15.5625C105.098 15.5625 104.32 15.7812 103.656 16.2188C102.992 16.6562 102.473 17.3008 102.098 18.1523C101.73 19.0039 101.547 20.0469 101.547 21.2812C101.547 22.5078 101.73 23.5469 102.098 24.3984C102.473 25.2422 102.992 25.8828 103.656 26.3203C104.32 26.7578 105.098 26.9766 105.988 26.9766Z" fill="white"/>
<path d="M118.923 19.8516L119.955 12.5391H123.564L121.373 19.8516H118.923Z" fill="white"/>
<path d="M136.452 30.2344C134.905 30.2344 133.519 29.8828 132.292 29.1797C131.066 28.4766 130.097 27.457 129.386 26.1211C128.675 24.7852 128.32 23.1719 128.32 21.2812C128.32 19.375 128.675 17.7539 129.386 16.418C130.105 15.0742 131.077 14.0547 132.304 13.3594C133.538 12.6562 134.921 12.3047 136.452 12.3047C137.468 12.3047 138.409 12.4492 139.277 12.7383C140.144 13.0195 140.909 13.4336 141.573 13.9805C142.245 14.5195 142.792 15.1836 143.214 15.9727C143.636 16.7539 143.905 17.6484 144.023 18.6562H140.296C140.226 18.1797 140.085 17.75 139.874 17.3672C139.671 16.9844 139.402 16.6602 139.066 16.3945C138.737 16.1289 138.359 15.9258 137.929 15.7852C137.507 15.6367 137.042 15.5625 136.534 15.5625C135.644 15.5625 134.859 15.7891 134.179 16.2422C133.507 16.6875 132.984 17.3359 132.609 18.1875C132.241 19.0312 132.058 20.0625 132.058 21.2812C132.058 22.5234 132.245 23.5703 132.62 24.4219C132.995 25.2656 133.519 25.9023 134.191 26.332C134.862 26.7617 135.64 26.9766 136.523 26.9766C137.015 26.9766 137.472 26.9102 137.894 26.7773C138.316 26.6445 138.691 26.4531 139.019 26.2031C139.347 25.9531 139.62 25.6484 139.839 25.2891C140.066 24.9219 140.218 24.5039 140.296 24.0352H144.023C143.929 24.8398 143.691 25.6133 143.308 26.3555C142.933 27.0977 142.421 27.7617 141.773 28.3477C141.124 28.9258 140.355 29.3867 139.464 29.7305C138.573 30.0664 137.57 30.2344 136.452 30.2344Z" fill="white"/>
<path d="M154.145 30.2578C152.825 30.2578 151.68 29.9766 150.712 29.4141C149.751 28.8438 149.009 28.0547 148.485 27.0469C147.97 26.0312 147.712 24.8516 147.712 23.5078C147.712 22.1484 147.97 20.9648 148.485 19.957C149.009 18.9414 149.751 18.1523 150.712 17.5898C151.68 17.0195 152.825 16.7344 154.145 16.7344C155.473 16.7344 156.618 17.0195 157.579 17.5898C158.548 18.1523 159.29 18.9414 159.805 19.957C160.329 20.9648 160.591 22.1484 160.591 23.5078C160.591 24.8516 160.329 26.0312 159.805 27.0469C159.29 28.0547 158.548 28.8438 157.579 29.4141C156.618 29.9766 155.473 30.2578 154.145 30.2578ZM154.169 27.4219C154.77 27.4219 155.274 27.2539 155.68 26.918C156.087 26.5742 156.391 26.1055 156.595 25.5117C156.805 24.918 156.911 24.2422 156.911 23.4844C156.911 22.7188 156.805 22.043 156.595 21.457C156.391 20.8711 156.087 20.4102 155.68 20.0742C155.274 19.7383 154.77 19.5703 154.169 19.5703C153.559 19.5703 153.048 19.7383 152.634 20.0742C152.227 20.4102 151.919 20.8711 151.708 21.457C151.505 22.043 151.403 22.7188 151.403 23.4844C151.403 24.2422 151.505 24.918 151.708 25.5117C151.919 26.1055 152.227 26.5742 152.634 26.918C153.048 27.2539 153.559 27.4219 154.169 27.4219Z" fill="white"/>
<path d="M168.217 22.4297V30H164.596V16.8984H168.159V19.2305H168.287C168.584 18.457 169.057 17.8477 169.705 17.4023C170.354 16.957 171.166 16.7344 172.143 16.7344C173.049 16.7344 173.838 16.9336 174.51 17.332C175.19 17.7305 175.717 18.2969 176.092 19.0312C176.467 19.7656 176.655 20.6445 176.655 21.668V30H173.034V22.3125C173.034 21.5156 172.827 20.8906 172.412 20.4375C171.998 19.9766 171.428 19.7461 170.702 19.7461C170.217 19.7461 169.787 19.8555 169.412 20.0742C169.037 20.2852 168.745 20.5898 168.534 20.9883C168.323 21.3867 168.217 21.8672 168.217 22.4297Z" fill="white"/>
<path d="M184.82 22.4297V30H181.199V16.8984H184.762V19.2305H184.891C185.188 18.457 185.66 17.8477 186.309 17.4023C186.957 16.957 187.77 16.7344 188.746 16.7344C189.652 16.7344 190.441 16.9336 191.113 17.332C191.793 17.7305 192.32 18.2969 192.695 19.0312C193.07 19.7656 193.258 20.6445 193.258 21.668V30H189.637V22.3125C189.637 21.5156 189.43 20.8906 189.016 20.4375C188.602 19.9766 188.031 19.7461 187.305 19.7461C186.82 19.7461 186.391 19.8555 186.016 20.0742C185.641 20.2852 185.348 20.5898 185.137 20.9883C184.926 21.3867 184.82 21.8672 184.82 22.4297Z" fill="white"/>
<path d="M203.767 30.2578C202.423 30.2578 201.263 29.9844 200.287 29.4375C199.31 28.8906 198.56 28.1133 198.037 27.1055C197.521 26.0898 197.263 24.8906 197.263 23.5078C197.263 22.1641 197.521 20.9844 198.037 19.9688C198.56 18.9531 199.295 18.1602 200.24 17.5898C201.193 17.0195 202.31 16.7344 203.591 16.7344C204.459 16.7344 205.267 16.875 206.017 17.1562C206.767 17.4297 207.423 17.8438 207.986 18.3984C208.548 18.9453 208.986 19.6367 209.298 20.4727C209.611 21.3008 209.767 22.2734 209.767 23.3906V24.375H198.705V22.1367H208.009L206.322 22.7227C206.322 22.0586 206.22 21.4805 206.017 20.9883C205.814 20.4961 205.509 20.1172 205.103 19.8516C204.705 19.5781 204.209 19.4414 203.615 19.4414C203.021 19.4414 202.517 19.5781 202.103 19.8516C201.697 20.125 201.384 20.4961 201.166 20.9648C200.947 21.4336 200.838 21.9727 200.838 22.582V24.1641C200.838 24.875 200.963 25.4844 201.213 25.9922C201.463 26.4922 201.81 26.8789 202.255 27.1523C202.709 27.418 203.228 27.5508 203.814 27.5508C204.22 27.5508 204.588 27.4922 204.916 27.375C205.244 27.2578 205.525 27.0859 205.759 26.8594C206.002 26.6328 206.181 26.3594 206.298 26.0391L209.65 26.2617C209.486 27.0664 209.142 27.7695 208.619 28.3711C208.103 28.9648 207.435 29.4297 206.615 29.7656C205.795 30.0938 204.845 30.2578 203.767 30.2578Z" fill="white"/>
<path d="M217.347 12.5391V30H213.726V12.5391H217.347Z" fill="white"/>
<path d="M225.512 12.5391V30H221.891V12.5391H225.512Z" fill="white"/>
<path d="M98.9297 50H97.0625L101.25 38.3594H103.281L107.461 50H105.602L102.305 40.4766H102.211L98.9297 50ZM99.2422 45.4453H105.281V46.9141H99.2422V45.4453Z" fill="white"/>
<path d="M111.852 50.1797C111.013 50.1797 110.289 49.987 109.68 49.6016C109.07 49.2161 108.602 48.6849 108.273 48.0078C107.945 47.3307 107.781 46.5547 107.781 45.6797C107.781 44.7891 107.948 44.0052 108.281 43.3281C108.62 42.6458 109.091 42.1146 109.695 41.7344C110.305 41.349 111.018 41.1562 111.836 41.1562C112.503 41.1562 113.094 41.2786 113.609 41.5234C114.13 41.763 114.549 42.1042 114.867 42.5469C115.19 42.9896 115.38 43.5052 115.438 44.0938H113.781C113.724 43.8177 113.612 43.5651 113.445 43.3359C113.284 43.1068 113.07 42.9245 112.805 42.7891C112.539 42.6536 112.224 42.5859 111.859 42.5859C111.385 42.5859 110.971 42.7109 110.617 42.9609C110.268 43.2057 109.995 43.5573 109.797 44.0156C109.599 44.474 109.5 45.0156 109.5 45.6406C109.5 46.2708 109.596 46.8203 109.789 47.2891C109.982 47.7578 110.255 48.1198 110.609 48.375C110.969 48.625 111.385 48.75 111.859 48.75C112.349 48.75 112.766 48.6146 113.109 48.3438C113.458 48.0729 113.682 47.7031 113.781 47.2344H115.438C115.38 47.8021 115.198 48.3073 114.891 48.75C114.583 49.1927 114.172 49.5417 113.656 49.7969C113.141 50.0521 112.539 50.1797 111.852 50.1797Z" fill="white"/>
<path d="M120.305 50.1797C119.466 50.1797 118.742 49.987 118.133 49.6016C117.523 49.2161 117.055 48.6849 116.727 48.0078C116.398 47.3307 116.234 46.5547 116.234 45.6797C116.234 44.7891 116.401 44.0052 116.734 43.3281C117.073 42.6458 117.544 42.1146 118.148 41.7344C118.758 41.349 119.471 41.1562 120.289 41.1562C120.956 41.1562 121.547 41.2786 122.062 41.5234C122.583 41.763 123.003 42.1042 123.32 42.5469C123.643 42.9896 123.833 43.5052 123.891 44.0938H122.234C122.177 43.8177 122.065 43.5651 121.898 43.3359C121.737 43.1068 121.523 42.9245 121.258 42.7891C120.992 42.6536 120.677 42.5859 120.312 42.5859C119.839 42.5859 119.424 42.7109 119.07 42.9609C118.721 43.2057 118.448 43.5573 118.25 44.0156C118.052 44.474 117.953 45.0156 117.953 45.6406C117.953 46.2708 118.049 46.8203 118.242 47.2891C118.435 47.7578 118.708 48.1198 119.062 48.375C119.422 48.625 119.839 48.75 120.312 48.75C120.802 48.75 121.219 48.6146 121.562 48.3438C121.911 48.0729 122.135 47.7031 122.234 47.2344H123.891C123.833 47.8021 123.651 48.3073 123.344 48.75C123.036 49.1927 122.625 49.5417 122.109 49.7969C121.594 50.0521 120.992 50.1797 120.305 50.1797Z" fill="white"/>
<path d="M128.758 50.1797C127.94 50.1797 127.224 49.9922 126.609 49.6172C126 49.2422 125.526 48.7161 125.188 48.0391C124.854 47.362 124.688 46.5755 124.688 45.6797C124.688 44.7734 124.854 43.9818 125.188 43.3047C125.526 42.6224 126 42.0938 126.609 41.7188C127.224 41.3438 127.94 41.1562 128.758 41.1562C129.581 41.1562 130.297 41.3438 130.906 41.7188C131.516 42.0938 131.99 42.6224 132.328 43.3047C132.667 43.9818 132.836 44.7734 132.836 45.6797C132.836 46.5755 132.667 47.362 132.328 48.0391C131.99 48.7161 131.516 49.2422 130.906 49.6172C130.297 49.9922 129.581 50.1797 128.758 50.1797ZM128.758 48.75C129.294 48.75 129.737 48.6094 130.086 48.3281C130.435 48.0469 130.693 47.6745 130.859 47.2109C131.031 46.7422 131.117 46.2318 131.117 45.6797C131.117 45.1172 131.031 44.6016 130.859 44.1328C130.693 43.6641 130.435 43.2891 130.086 43.0078C129.737 42.7266 129.294 42.5859 128.758 42.5859C128.227 42.5859 127.786 42.7266 127.438 43.0078C127.094 43.2891 126.836 43.6641 126.664 44.1328C126.492 44.6016 126.406 45.1172 126.406 45.6797C126.406 46.2318 126.492 46.7422 126.664 47.2109C126.836 47.6745 127.094 48.0469 127.438 48.3281C127.786 48.6094 128.227 48.75 128.758 48.75Z" fill="white"/>
<path d="M139.594 46.3906V41.2656H141.281V50H139.625V48.4844H139.531C139.323 48.9479 139 49.3359 138.562 49.6484C138.125 49.9609 137.578 50.1146 136.922 50.1094C136.359 50.1094 135.862 49.987 135.43 49.7422C135.003 49.4974 134.667 49.1302 134.422 48.6406C134.182 48.151 134.062 47.5443 134.062 46.8203V41.2656H135.75V46.625C135.75 47.2135 135.917 47.6849 136.25 48.0391C136.583 48.3932 137.013 48.5677 137.539 48.5625C137.857 48.5625 138.172 48.4844 138.484 48.3281C138.802 48.1719 139.065 47.9323 139.273 47.6094C139.487 47.2865 139.594 46.8802 139.594 46.3906Z" fill="white"/>
<path d="M144.594 44.8203V50H142.906V41.2656H144.547V42.7031H144.664C144.862 42.2292 145.172 41.8542 145.594 41.5781C146.016 41.2969 146.557 41.1562 147.219 41.1562C147.812 41.1562 148.331 41.2812 148.773 41.5312C149.221 41.776 149.568 42.1432 149.812 42.6328C150.062 43.1224 150.188 43.7292 150.188 44.4531V50H148.5V44.6562C148.5 44.026 148.333 43.5312 148 43.1719C147.667 42.8073 147.214 42.625 146.641 42.625C146.25 42.625 145.898 42.7135 145.586 42.8906C145.279 43.0625 145.036 43.3099 144.859 43.6328C144.682 43.9557 144.594 44.3516 144.594 44.8203Z" fill="white"/>
<path d="M155.875 41.2656V42.6328H151.109V41.2656H155.875ZM152.383 39.1875H154.078V47.4375C154.078 47.8385 154.161 48.1328 154.328 48.3203C154.495 48.5026 154.763 48.5938 155.133 48.5938C155.221 48.5938 155.315 48.5885 155.414 48.5781C155.518 48.5677 155.622 48.5521 155.727 48.5312L156.047 49.9375C155.875 49.9948 155.688 50.0391 155.484 50.0703C155.281 50.1016 155.078 50.1172 154.875 50.1172C154.12 50.1172 153.516 49.9062 153.062 49.4844C152.609 49.0573 152.383 48.4896 152.383 47.7812V39.1875Z" fill="white"/>
<path d="M159.625 50.1875C159.073 50.1875 158.573 50.0859 158.125 49.8828C157.677 49.6745 157.323 49.3724 157.062 48.9766C156.802 48.5807 156.672 48.099 156.672 47.5312C156.672 47.0365 156.766 46.6328 156.953 46.3203C157.146 46.0026 157.404 45.75 157.727 45.5625C158.049 45.375 158.409 45.2344 158.805 45.1406C159.201 45.0469 159.607 44.974 160.023 44.9219C160.549 44.8646 160.974 44.8151 161.297 44.7734C161.62 44.7318 161.854 44.6667 162 44.5781C162.151 44.4844 162.227 44.3359 162.227 44.1328V44.0938C162.227 43.599 162.086 43.2161 161.805 42.9453C161.529 42.6745 161.117 42.5391 160.57 42.5391C160.003 42.5391 159.552 42.6641 159.219 42.9141C158.891 43.1589 158.664 43.4375 158.539 43.75L156.938 43.3828C157.13 42.8516 157.409 42.4245 157.773 42.1016C158.143 41.7734 158.565 41.5339 159.039 41.3828C159.518 41.2318 160.018 41.1562 160.539 41.1562C160.888 41.1562 161.258 41.1979 161.648 41.2812C162.039 41.3594 162.406 41.5078 162.75 41.7266C163.099 41.9401 163.383 42.2474 163.602 42.6484C163.82 43.0495 163.93 43.5677 163.93 44.2031V50H162.266V48.8047H162.203C162.099 49.0182 161.935 49.2318 161.711 49.4453C161.492 49.6589 161.211 49.8359 160.867 49.9766C160.523 50.1172 160.109 50.1875 159.625 50.1875ZM159.992 48.8281C160.466 48.8281 160.87 48.737 161.203 48.5547C161.536 48.3672 161.792 48.1224 161.969 47.8203C162.146 47.5182 162.234 47.1979 162.234 46.8594V45.7266C162.172 45.7839 162.055 45.8385 161.883 45.8906C161.711 45.9427 161.516 45.987 161.297 46.0234C161.078 46.0599 160.865 46.0938 160.656 46.125C160.448 46.151 160.273 46.1719 160.133 46.1875C159.805 46.2344 159.505 46.3073 159.234 46.4062C158.964 46.5 158.745 46.6406 158.578 46.8281C158.417 47.0104 158.336 47.2526 158.336 47.5547C158.336 47.9766 158.492 48.2943 158.805 48.5078C159.117 48.7214 159.513 48.8281 159.992 48.8281Z" fill="white"/>
<path d="M167.25 44.8203V50H165.562V41.2656H167.203V42.7031H167.32C167.518 42.2292 167.828 41.8542 168.25 41.5781C168.672 41.2969 169.214 41.1562 169.875 41.1562C170.469 41.1562 170.987 41.2812 171.43 41.5312C171.878 41.776 172.224 42.1432 172.469 42.6328C172.719 43.1224 172.844 43.7292 172.844 44.4531V50H171.156V44.6562C171.156 44.026 170.99 43.5312 170.656 43.1719C170.323 42.8073 169.87 42.625 169.297 42.625C168.906 42.625 168.555 42.7135 168.242 42.8906C167.935 43.0625 167.693 43.3099 167.516 43.6328C167.339 43.9557 167.25 44.3516 167.25 44.8203Z" fill="white"/>
<path d="M178.531 41.2656V42.6328H173.766V41.2656H178.531ZM175.039 39.1875H176.734V47.4375C176.734 47.8385 176.818 48.1328 176.984 48.3203C177.151 48.5026 177.419 48.5938 177.789 48.5938C177.878 48.5938 177.971 48.5885 178.07 48.5781C178.174 48.5677 178.279 48.5521 178.383 48.5312L178.703 49.9375C178.531 49.9948 178.344 50.0391 178.141 50.0703C177.938 50.1016 177.734 50.1172 177.531 50.1172C176.776 50.1172 176.172 49.9062 175.719 49.4844C175.266 49.0573 175.039 48.4896 175.039 47.7812V39.1875Z" fill="white"/>
<path d="M186.141 43.4062L184.602 43.6719C184.503 43.3802 184.318 43.112 184.047 42.8672C183.781 42.6224 183.383 42.5 182.852 42.5C182.372 42.5 181.971 42.6094 181.648 42.8281C181.331 43.0417 181.172 43.3151 181.172 43.6484C181.172 43.9401 181.279 44.1771 181.492 44.3594C181.711 44.5417 182.057 44.6875 182.531 44.7969L183.93 45.1094C184.727 45.2917 185.323 45.5781 185.719 45.9688C186.115 46.3594 186.312 46.8594 186.312 47.4688C186.312 47.9948 186.161 48.4635 185.859 48.875C185.557 49.2812 185.138 49.6016 184.602 49.8359C184.065 50.0651 183.445 50.1797 182.742 50.1797C181.763 50.1797 180.966 49.9688 180.352 49.5469C179.737 49.125 179.359 48.5312 179.219 47.7656L180.852 47.5156C180.956 47.9427 181.167 48.2656 181.484 48.4844C181.807 48.7031 182.224 48.8125 182.734 48.8125C183.286 48.8125 183.729 48.6953 184.062 48.4609C184.401 48.2266 184.57 47.9427 184.57 47.6094C184.57 47.0573 184.159 46.6849 183.336 46.4922L181.859 46.1641C181.042 45.9766 180.438 45.6823 180.047 45.2812C179.661 44.875 179.469 44.3646 179.469 43.75C179.469 43.2344 179.612 42.7812 179.898 42.3906C180.19 42 180.589 41.6979 181.094 41.4844C181.604 41.2656 182.185 41.1562 182.836 41.1562C183.784 41.1562 184.526 41.362 185.062 41.7734C185.604 42.1849 185.964 42.7292 186.141 43.4062Z" fill="white"/>
<path d="M194.75 50V38.3594H201.977V39.8672H196.508V43.6406H201.453V45.1406H196.508V50H194.75Z" fill="white"/>
<path d="M203.328 50V41.2656H205.016V50H203.328ZM204.18 39.9219C203.883 39.9219 203.63 39.8229 203.422 39.625C203.214 39.4271 203.109 39.1901 203.109 38.9141C203.109 38.6328 203.214 38.3932 203.422 38.1953C203.63 37.9974 203.883 37.8984 204.18 37.8984C204.471 37.8984 204.721 37.9974 204.93 38.1953C205.143 38.3932 205.25 38.6328 205.25 38.9141C205.25 39.1901 205.143 39.4271 204.93 39.625C204.721 39.8229 204.471 39.9219 204.18 39.9219Z" fill="white"/>
<path d="M206.641 50V41.2656H208.273V42.6641H208.367C208.529 42.1953 208.81 41.8255 209.211 41.5547C209.617 41.2786 210.076 41.1406 210.586 41.1406C210.69 41.1406 210.812 41.1458 210.953 41.1562C211.099 41.1615 211.216 41.1693 211.305 41.1797V42.8047C211.237 42.7839 211.115 42.763 210.938 42.7422C210.766 42.7214 210.591 42.7109 210.414 42.7109C210.013 42.7109 209.654 42.7969 209.336 42.9688C209.023 43.1354 208.776 43.3672 208.594 43.6641C208.417 43.9557 208.328 44.2943 208.328 44.6797V50H206.641Z" fill="white"/>
<path d="M212.125 50V41.2656H213.742V42.7031H213.859C214.042 42.2188 214.339 41.8411 214.75 41.5703C215.167 41.2943 215.661 41.1562 216.234 41.1562C216.818 41.1562 217.305 41.2943 217.695 41.5703C218.091 41.8411 218.385 42.2188 218.578 42.7031H218.672C218.88 42.2292 219.211 41.8542 219.664 41.5781C220.117 41.2969 220.656 41.1562 221.281 41.1562C222.073 41.1562 222.721 41.4062 223.227 41.9062C223.732 42.401 223.984 43.1484 223.984 44.1484V50H222.281V44.3047C222.281 43.7109 222.12 43.2839 221.797 43.0234C221.474 42.7578 221.089 42.625 220.641 42.625C220.089 42.625 219.659 42.7969 219.352 43.1406C219.049 43.4792 218.898 43.9089 218.898 44.4297V50H217.195V44.1953C217.195 43.7214 217.049 43.3411 216.758 43.0547C216.466 42.7682 216.083 42.625 215.609 42.625C215.286 42.625 214.987 42.7109 214.711 42.8828C214.44 43.0495 214.221 43.2839 214.055 43.5859C213.893 43.8828 213.812 44.2266 213.812 44.6172V50H212.125Z" fill="white"/>
<path d="M102.766 70.1562C101.734 70.1562 100.828 69.9141 100.047 69.4297C99.2708 68.9453 98.6641 68.2578 98.2266 67.3672C97.7943 66.4714 97.5781 65.4115 97.5781 64.1875C97.5781 62.9583 97.7943 61.8958 98.2266 61C98.6641 60.1042 99.2656 59.4141 100.031 58.9297C100.797 58.4453 101.677 58.2031 102.672 58.2031C103.286 58.2031 103.859 58.2943 104.391 58.4766C104.922 58.6589 105.396 58.9193 105.812 59.2578C106.229 59.5964 106.576 59.9974 106.852 60.4609C107.133 60.9245 107.328 61.4375 107.438 62H105.984C105.859 61.6146 105.695 61.2708 105.492 60.9688C105.294 60.6615 105.055 60.401 104.773 60.1875C104.492 59.9688 104.177 59.8021 103.828 59.6875C103.479 59.5729 103.094 59.5156 102.672 59.5156C101.984 59.5156 101.357 59.6953 100.789 60.0547C100.227 60.4089 99.776 60.9349 99.4375 61.6328C99.1042 62.3255 98.9375 63.1771 98.9375 64.1875C98.9375 65.1927 99.1068 66.0417 99.4453 66.7344C99.7839 67.4271 100.242 67.9531 100.82 68.3125C101.398 68.6667 102.047 68.8438 102.766 68.8438C103.432 68.8438 104.018 68.7005 104.523 68.4141C105.029 68.1276 105.424 67.724 105.711 67.2031C105.997 66.6771 106.141 66.0573 106.141 65.3438L106.578 65.4375H103.078V64.1875H107.516V65.4375C107.516 66.3958 107.312 67.2292 106.906 67.9375C106.5 68.6406 105.938 69.1875 105.219 69.5781C104.505 69.9635 103.688 70.1562 102.766 70.1562Z" fill="white"/>
<path d="M111.562 70.2031C111.01 70.2031 110.508 70.099 110.055 69.8906C109.602 69.6771 109.242 69.3698 108.977 68.9688C108.711 68.5677 108.578 68.0833 108.578 67.5156C108.578 67.0156 108.677 66.612 108.875 66.3047C109.073 65.9922 109.336 65.7474 109.664 65.5703C109.997 65.388 110.362 65.2526 110.758 65.1641C111.159 65.0755 111.562 65.0052 111.969 64.9531C112.5 64.8854 112.93 64.8333 113.258 64.7969C113.591 64.7604 113.833 64.6979 113.984 64.6094C114.141 64.5208 114.219 64.3698 114.219 64.1562V64.1094C114.219 63.5521 114.065 63.1198 113.758 62.8125C113.456 62.5 112.995 62.3438 112.375 62.3438C111.74 62.3438 111.24 62.4844 110.875 62.7656C110.51 63.0417 110.255 63.3385 110.109 63.6562L108.828 63.2031C109.057 62.6719 109.362 62.2578 109.742 61.9609C110.128 61.6641 110.544 61.4557 110.992 61.3359C111.445 61.2161 111.891 61.1562 112.328 61.1562C112.609 61.1562 112.932 61.1901 113.297 61.2578C113.661 61.3203 114.016 61.4557 114.359 61.6641C114.708 61.8672 114.995 62.1771 115.219 62.5938C115.448 63.0052 115.562 63.5573 115.562 64.25V70H114.219V68.8125H114.156C114.068 69 113.917 69.2031 113.703 69.4219C113.49 69.6354 113.206 69.8203 112.852 69.9766C112.503 70.1276 112.073 70.2031 111.562 70.2031ZM111.766 69C112.297 69 112.745 68.8958 113.109 68.6875C113.474 68.4792 113.75 68.2109 113.938 67.8828C114.125 67.5495 114.219 67.2031 114.219 66.8438V65.6094C114.161 65.6771 114.036 65.7396 113.844 65.7969C113.656 65.849 113.438 65.8958 113.188 65.9375C112.943 65.9792 112.703 66.0156 112.469 66.0469C112.234 66.0729 112.047 66.0938 111.906 66.1094C111.557 66.1562 111.232 66.2318 110.93 66.3359C110.628 66.4349 110.383 66.5833 110.195 66.7812C110.013 66.9792 109.922 67.25 109.922 67.5938C109.922 68.0573 110.094 68.4089 110.438 68.6484C110.786 68.8828 111.229 69 111.766 69Z" fill="white"/>
<path d="M118.609 58.3594V70H117.281V58.3594H118.609Z" fill="white"/>
<path d="M122.297 70L119.641 61.2656H121.047L122.938 67.9531H123.031L124.891 61.2656H126.328L128.156 67.9375H128.25L130.141 61.2656H131.547L128.891 70H127.578L125.656 63.2969H125.531L123.609 70H122.297Z" fill="white"/>
<path d="M135.141 70.2031C134.589 70.2031 134.086 70.099 133.633 69.8906C133.18 69.6771 132.82 69.3698 132.555 68.9688C132.289 68.5677 132.156 68.0833 132.156 67.5156C132.156 67.0156 132.255 66.612 132.453 66.3047C132.651 65.9922 132.914 65.7474 133.242 65.5703C133.576 65.388 133.94 65.2526 134.336 65.1641C134.737 65.0755 135.141 65.0052 135.547 64.9531C136.078 64.8854 136.508 64.8333 136.836 64.7969C137.169 64.7604 137.411 64.6979 137.562 64.6094C137.719 64.5208 137.797 64.3698 137.797 64.1562V64.1094C137.797 63.5521 137.643 63.1198 137.336 62.8125C137.034 62.5 136.573 62.3438 135.953 62.3438C135.318 62.3438 134.818 62.4844 134.453 62.7656C134.089 63.0417 133.833 63.3385 133.688 63.6562L132.406 63.2031C132.635 62.6719 132.94 62.2578 133.32 61.9609C133.706 61.6641 134.122 61.4557 134.57 61.3359C135.023 61.2161 135.469 61.1562 135.906 61.1562C136.188 61.1562 136.51 61.1901 136.875 61.2578C137.24 61.3203 137.594 61.4557 137.938 61.6641C138.286 61.8672 138.573 62.1771 138.797 62.5938C139.026 63.0052 139.141 63.5573 139.141 64.25V70H137.797V68.8125H137.734C137.646 69 137.495 69.2031 137.281 69.4219C137.068 69.6354 136.784 69.8203 136.43 69.9766C136.081 70.1276 135.651 70.2031 135.141 70.2031ZM135.344 69C135.875 69 136.323 68.8958 136.688 68.6875C137.052 68.4792 137.328 68.2109 137.516 67.8828C137.703 67.5495 137.797 67.2031 137.797 66.8438V65.6094C137.74 65.6771 137.615 65.7396 137.422 65.7969C137.234 65.849 137.016 65.8958 136.766 65.9375C136.521 65.9792 136.281 66.0156 136.047 66.0469C135.812 66.0729 135.625 66.0938 135.484 66.1094C135.135 66.1562 134.81 66.2318 134.508 66.3359C134.206 66.4349 133.961 66.5833 133.773 66.7812C133.591 66.9792 133.5 67.25 133.5 67.5938C133.5 68.0573 133.672 68.4089 134.016 68.6484C134.365 68.8828 134.807 69 135.344 69Z" fill="white"/>
<path d="M141.406 73.2656C141.177 73.2708 140.974 73.2552 140.797 73.2188C140.62 73.1823 140.495 73.1458 140.422 73.1094L140.766 71.9375L140.898 71.9688C141.346 72.0729 141.721 72.0495 142.023 71.8984C142.331 71.7526 142.599 71.3646 142.828 70.7344L143.078 70.0469L139.859 61.2656H141.312L143.719 68.2344H143.812L146.219 61.2656H147.672L143.969 71.2656C143.802 71.7188 143.596 72.0938 143.352 72.3906C143.107 72.6875 142.823 72.9062 142.5 73.0469C142.177 73.1927 141.812 73.2656 141.406 73.2656Z" fill="white"/>
</svg>
